<?xml version="1.0" standalone="no"?>
<!DOCTYPE svg PUBLIC "-//W3C//DTD SVG 20010904//EN"
 "http://www.w3.org/TR/2001/REC-SVG-20010904/DTD/svg10.dtd">
<svg version="1.0" xmlns="http://www.w3.org/2000/svg"
 width="400.000000pt" height="437.000000pt" viewBox="0 0 400.000000 437.000000"
 preserveAspectRatio="xMidYMid meet">

<g transform="translate(0.000000,437.000000) scale(0.100000,-0.100000)"
fill="#000000" stroke="none">
<path d="M1818 4110 c-357 -34 -689 -161 -973 -370 -551 -406 -849 -1106 -760
-1782 47 -359 194 -702 415 -972 80 -99 260 -269 359 -340 447 -321 1002 -437
1526 -321 370 83 663 239 929 495 171 165 288 325 391 537 332 678 232 1492
-256 2078 -291 349 -725 591 -1184 660 -127 19 -335 26 -447 15z m811 -320
c22 -11 50 -36 62 -57 l24 -38 3 -551 3 -551 42 -6 c57 -8 107 -61 107 -114 0
-58 -29 -96 -94 -123 l-56 -22 0 -757 c0 -518 -4 -768 -11 -796 -23 -81 -113
-135 -191 -115 -47 13 -97 55 -114 97 -11 26 -14 165 -14 738 0 436 -4 705 -9
705 -6 0 -74 -24 -153 -53 -79 -30 -245 -91 -370 -138 l-228 -83 0 -339 0
-339 -29 -29 c-36 -36 -73 -37 -106 -4 l-25 24 0 312 0 311 -27 -8 c-16 -5
-52 -9 -81 -9 -48 0 -57 3 -83 33 -22 24 -29 42 -29 73 0 78 25 102 155 151
l60 23 3 555 c2 553 2 554 24 577 27 29 77 30 109 4 l24 -19 3 -526 c1 -289 6
-526 10 -526 6 0 499 182 697 257 l50 19 5 614 c5 559 7 618 22 647 17 30 56
64 88 76 32 12 93 6 129 -13z"/>
</g>
</svg>
